HIERARCHY
ROOT Hips
{
	OFFSET 0.00000 0.00000 0.00000
	CHANNELS 6 Xposition Yposition Zposition Zrotation Yrotation Xrotation 
	JOINT LHipJoint
	{
		OFFSET 0 0 0
		CHANNELS 3 Zrotation Yrotation Xrotation
		JOINT LeftHip
		{
			OFFSET 1.57314 -1.85774 0.63783
			CHANNELS 3 Zrotation Yrotation Xrotation
			JOINT LeftKnee
			{
				OFFSET 2.57982 -7.08799 0.00000
				CHANNELS 3 Zrotation Yrotation Xrotation
				JOINT LeftAnkle
				{
					OFFSET 2.63993 -7.25315 0.00000
					CHANNELS 3 Zrotation Yrotation Xrotation
					JOINT LeftToe
					{
						OFFSET 0.16864 -0.46332 2.12791
						CHANNELS 3 Zrotation Yrotation Xrotation
						End Site
						{
							OFFSET 0.00000 -0.00000 1.09718
						}
					}
				}
			}
		}
	}
	JOINT RHipJoint
	{
		OFFSET 0 0 0
		CHANNELS 3 Zrotation Yrotation Xrotation
		JOINT RightHip
		{
			OFFSET -1.56006 -1.85774 0.63784
			CHANNELS 3 Zrotation Yrotation Xrotation
			JOINT RightKnee
			{
				OFFSET -2.54246 -6.98536 0.00000
				CHANNELS 3 Zrotation Yrotation Xrotation
				JOINT RightAnkle
				{
					OFFSET -2.65791 -7.30256 0.00000
					CHANNELS 3 Zrotation Yrotation Xrotation
					JOINT RightToe
					{
						OFFSET -0.18435 -0.50650 2.16316
						CHANNELS 3 Zrotation Yrotation Xrotation
						End Site
						{
							OFFSET -0.00000 -0.00000 1.11780
						}
					}
				}
			}
		}
	}
	JOINT lowerback
	{
		OFFSET 0 0 0
		CHANNELS 3 Zrotation Yrotation Xrotation
		JOINT Chest
		{
			OFFSET -0.00136 1.92812 -0.29638
			CHANNELS 3 Zrotation Yrotation Xrotation
			JOINT Chest2
			{
				OFFSET -0.00528 1.96223 -0.02928
				CHANNELS 3 Zrotation Yrotation Xrotation
				JOINT lowerneck
				{
					OFFSET 0 0 0
					CHANNELS 3 Zrotation Yrotation Xrotation
					JOINT Neck
					{
						OFFSET -0.01015 1.75586 0.07797
						CHANNELS 3 Zrotation Yrotation Xrotation
						JOINT Head
						{
							OFFSET 0.05540 1.72452 0.04558
							CHANNELS 3 Zrotation Yrotation Xrotation
							End Site
							{
								OFFSET 0.02170 1.79958 0.00864
							}
						}
					}
				}
				JOINT LeftCollar
				{
					OFFSET 0 0 0
					CHANNELS 3 Zrotation Yrotation Xrotation
					JOINT LeftShoulder
					{
						OFFSET 3.16292 1.29277 -0.65728
CHANNELS 3 Zrotation Xrotation Yrotation
						JOINT LeftElbow
						{
OFFSET 0 -5.523020 -0.000000
CHANNELS 3 Zrotation Xrotation Yrotation
							JOINT LeftWrist
							{
OFFSET 0 -3.586750 -0.000000
CHANNELS 3 Zrotation Xrotation Yrotation
								JOINT lhand
								{
									OFFSET 0 0 0
CHANNELS 3 Zrotation Xrotation Yrotation
									JOINT LFingers
									{
OFFSET 0 -0.536410 -0.000000
CHANNELS 3 Zrotation Xrotation Yrotation
										End Site
										{
OFFSET 0 -0.432470 -0.000000
										}
									}
								}
								JOINT LThumb
								{
OFFSET 0 0.000000 0.000000
CHANNELS 3 Zrotation Xrotation Yrotation
									End Site
									{
OFFSET 0 -0.439070 0.439070
									}
								}
							}
						}
					}
				}
				JOINT RightCollar
				{
					OFFSET 0 0 0
					CHANNELS 3 Zrotation Yrotation Xrotation
					JOINT RightShoulder
					{
						OFFSET -3.08296 1.43376 -0.52927
CHANNELS 3 Zrotation Xrotation Yrotation
						JOINT RightElbow
						{
OFFSET 0 -5.847800 0.000000
CHANNELS 3 Zrotation Xrotation Yrotation
							JOINT RightWrist
							{
OFFSET 0 -3.627170 -0.000000
CHANNELS 3 Zrotation Xrotation Yrotation
								JOINT rhand
								{
									OFFSET 0 0 0
CHANNELS 3 Zrotation Xrotation Yrotation
									JOINT RFingers
									{
OFFSET 0 -0.650520 -0.000000
CHANNELS 3 Zrotation Xrotation Yrotation
										End Site
										{
OFFSET 0 -0.524460 -0.000000
										}
									}
								}
								JOINT RThumb
								{
OFFSET 0 0.000000 0.000000
CHANNELS 3 Zrotation Xrotation Yrotation
									End Site
									{
OFFSET 0 -0.532470 0.532470
									}
								}
							}
						}
					}
				}
			}
		}
	}
}
MOTION
Frames: 5
Frame Time: 0.008333333333333333
0.355816 18.000963 4.376258 -2.852519 2.571958 2.965864 0.000000 0.000000 0.000000 -19.064169 -6.962124 -25.825347 2.159398 9.180591 26.369151 -0.161012 -7.271954 2.276485 0.309181 -3.572833 -9.878130 0.000000 0.000000 0.000000 28.035090 -4.161618 4.942377 -18.260002 -19.907899 84.901480 -0.810378 -19.775537 19.933974 -1.919011 -8.695269 24.846589 1.475180 0.911822 16.340430 -1.035745 1.387828 1.746666 -2.251171 0.615081 -7.232399 -1.060542 -0.777258 -5.121427 2.666564 -0.799247 -10.390510 1.030516 -0.412953 -2.391822 0.000000 0.000000 0.000000 5.563268 21.180608 -37.662902 122.478467 -55.611579 87.712652 34.026593 -22.186168 -10.677645 0.000000 0.000000 0.000000 -7.125000 0.000000 0.000000 6.312992 42.709794 0.357582 0.000000 0.000000 0.000000 -10.579089 9.345606 44.419160 -104.006727 -59.232858 -72.097920 -39.176232 -25.842483 -27.665409 0.000000 0.000000 0.000000 7.125000 0.000000 0.000000 -5.094274 -3.970102 -5.456616
0.353848 17.972488 4.488975 -2.809458 2.779174 2.923393 0.000000 0.000000 0.000000 -19.176208 -6.961271 -25.676742 2.243093 9.349272 26.898553 -0.179536 -7.674161 1.565454 0.299842 -3.519799 -9.729591 0.000000 0.000000 0.000000 27.779869 -4.445553 4.339230 -18.659607 -19.945296 86.075341 -0.747633 -19.766111 19.511821 -1.916934 -8.690808 24.832767 1.410139 0.822965 16.391190 -1.028834 1.260283 1.745397 -2.180313 0.554742 -7.269796 -1.060127 -0.776274 -5.066381 2.668991 -0.798941 -10.361729 1.031347 -0.413259 -2.391866 0.000000 0.000000 0.000000 5.650003 20.839724 -37.813607 122.649401 -55.561038 87.853756 34.073678 -22.126004 -10.783036 0.000000 0.000000 0.000000 -7.125000 0.000000 0.000000 6.356775 42.840181 0.339845 0.000000 0.000000 0.000000 -10.517066 9.662018 44.244180 -103.228382 -59.320775 -71.429361 -39.350097 -26.049349 -27.876628 0.000000 0.000000 0.000000 7.125000 0.000000 0.000000 -5.143721 -4.270505 -5.534647
0.352034 17.943640 4.601538 -2.757973 2.964953 2.873663 0.000000 0.000000 0.000000 -19.293614 -6.957510 -25.522093 2.329949 9.519889 27.437327 -0.194161 -8.053655 0.863348 0.292103 -3.475735 -9.606190 0.000000 0.000000 0.000000 27.509270 -4.709103 3.750999 -19.055566 -19.975298 87.237450 -0.689115 -19.748430 19.109704 -1.927823 -8.713028 24.902301 1.335258 0.741246 16.455664 -1.026247 1.139975 1.746452 -2.110105 0.498152 -7.311695 -1.069088 -0.775706 -5.019683 2.684886 -0.798064 -10.325988 1.037969 -0.413154 -2.388151 0.000000 0.000000 0.000000 5.737015 20.489023 -37.966125 122.822715 -55.509399 87.996729 34.136793 -22.058203 -10.875997 0.000000 0.000000 0.000000 -7.125000 0.000000 0.000000 6.415381 42.957939 0.324535 0.000000 0.000000 0.000000 -10.451589 9.963294 44.073481 -102.413814 -59.406228 -70.729011 -39.527402 -26.190334 -28.021529 0.000000 0.000000 0.000000 7.125000 0.000000 0.000000 -5.210567 -4.497211 -5.625599
0.350787 17.913416 4.713533 -2.675502 3.071875 2.797228 0.000000 0.000000 0.000000 -19.430759 -6.943054 -25.345210 2.428429 9.697625 28.010578 -0.194445 -8.349597 0.194067 0.290244 -3.464669 -9.575266 0.000000 0.000000 0.000000 27.182098 -4.897664 3.217639 -19.438112 -19.978098 88.356330 -0.646141 -19.700382 18.781285 -1.986412 -8.833399 25.278461 1.224182 0.685784 16.570590 -1.039565 1.046284 1.756053 -2.042286 0.455353 -7.370153 -1.112543 -0.776668 -5.003696 2.750320 -0.795090 -10.264643 1.065897 -0.411536 -2.370612 0.000000 0.000000 0.000000 5.825041 20.102212 -38.125316 123.004781 -55.453718 88.146581 34.258870 -21.962304 -10.923236 0.000000 0.000000 0.000000 -7.125000 0.000000 0.000000 6.528513 43.029234 0.318149 0.000000 0.000000 0.000000 -10.373404 10.208892 43.918534 -101.465999 -59.482619 -69.911715 -39.717363 -26.088967 -27.922481 0.000000 0.000000 0.000000 7.125000 0.000000 0.000000 -5.341414 -4.452815 -5.764078
0.349540 17.883192 4.825528 -2.593031 3.178796 2.720793 0.000000 0.000000 0.000000 -19.567904 -6.928598 -25.168327 2.526908 9.875361 28.583828 -0.194729 -8.645539 -0.475214 0.288385 -3.453603 -9.544343 0.000000 0.000000 0.000000 26.854926 -5.086226 2.684279 -19.820658 -19.980897 89.475210 -0.603166 -19.652334 18.452867 -2.045001 -8.953771 25.654621 1.113105 0.630322 16.685516 -1.052884 0.952594 1.765654 -1.974468 0.412554 -7.428611 -1.155999 -0.777630 -4.987709 2.815755 -0.792116 -10.203299 1.093825 -0.409917 -2.353072 0.000000 0.000000 0.000000 5.913066 19.715401 -38.284506 123.186847 -55.398038 88.296433 34.380947 -21.866405 -10.970474 0.000000 0.000000 0.000000 -7.125000 0.000000 0.000000 6.641646 43.100530 0.311763 0.000000 0.000000 0.000000 -10.295220 10.454489 43.763587 -100.518185 -59.559010 -69.094420 -39.907324 -25.987601 -27.823433 0.000000 0.000000 0.000000 7.125000 0.000000 0.000000 -5.472261 -4.408420 -5.902558
